<svg width="52" height="42" viewBox="0 0 52 42" fill="none" xmlns="http://www.w3.org/2000/svg">
<path d="M19.5413 22.5328C19.5413 24.0021 19.8307 25.457 20.3929 26.8144C20.9552 28.1719 21.7794 29.4053 22.8183 30.4442C23.8573 31.4832 25.0907 32.3073 26.4481 32.8696C27.8056 33.4319 29.2605 33.7213 30.7298 33.7213C32.1991 33.7213 33.654 33.4319 35.0114 32.8696C36.3689 32.3073 37.6023 31.4832 38.6413 30.4442C39.6802 29.4053 40.5044 28.1719 41.0666 26.8144C41.6289 25.457 41.9183 24.0021 41.9183 22.5328C41.9183 21.0635 41.6289 19.6085 41.0666 18.2511C40.5044 16.8936 39.6802 15.6602 38.6413 14.6213C37.6023 13.5823 36.3689 12.7582 35.0114 12.1959C33.654 11.6336 32.1991 11.3442 30.7298 11.3442C29.2605 11.3442 27.8056 11.6336 26.4481 12.1959C25.0907 12.7582 23.8573 13.5823 22.8183 14.6213C21.7794 15.6602 20.9552 16.8936 20.3929 18.2511C19.8307 19.6085 19.5413 21.0635 19.5413 22.5328V22.5328Z" stroke="#BABABA" stroke-width="3" stroke-linecap="round" stroke-linejoin="round"/>
<path d="M41.9182 8.14753L39.6059 3.52081C39.3403 2.98977 38.9321 2.5432 38.4269 2.23115C37.9218 1.9191 37.3397 1.75391 36.7459 1.75409H24.7135C24.1197 1.75391 23.5377 1.9191 23.0325 2.23115C22.5274 2.5432 22.1191 2.98977 21.8535 3.52081L19.5412 8.14753H5.15595C4.30813 8.14753 3.49503 8.48433 2.89553 9.08383C2.29603 9.68333 1.95923 10.4964 1.95923 11.3442V36.918C1.95923 37.7658 2.29603 38.5789 2.89553 39.1784C3.49503 39.7779 4.30813 40.1147 5.15595 40.1147H46.7133C47.5611 40.1147 48.3742 39.7779 48.9737 39.1784C49.5732 38.5789 49.91 37.7658 49.91 36.918V11.3442C49.91 10.4964 49.5732 9.68333 48.9737 9.08383C48.3742 8.48433 47.5611 8.14753 46.7133 8.14753H41.9182Z" stroke="#BABABA" stroke-width="3" stroke-linecap="round" stroke-linejoin="round"/>
<path d="M9.15196 14.541C9.31003 14.541 9.46454 14.5879 9.59596 14.6757C9.72739 14.7635 9.82982 14.8883 9.89031 15.0343C9.9508 15.1804 9.96662 15.3411 9.93579 15.4961C9.90495 15.6511 9.82884 15.7935 9.71707 15.9053C9.6053 16.017 9.4629 16.0932 9.30788 16.124C9.15285 16.1548 8.99216 16.139 8.84613 16.0785C8.7001 16.018 8.57528 15.9156 8.48747 15.7842C8.39965 15.6527 8.35278 15.4982 8.35278 15.3402C8.35278 15.1282 8.43698 14.9249 8.58686 14.7751C8.73673 14.6252 8.94001 14.541 9.15196 14.541Z" stroke="#BABABA" stroke-width="3" stroke-linecap="round" stroke-linejoin="round"/>
<path d="M11.5493 8.14753V4.95081" stroke="#BABABA" stroke-width="3" stroke-linecap="round" stroke-linejoin="round"/>
</svg>
