<svg width="255" height="255" viewBox="0 0 255 255" fill="none" xmlns="http://www.w3.org/2000/svg">
<path opacity="0.05" d="M124.84 147.085C155.68 147.085 180.681 142.861 180.681 137.65C180.681 132.44 155.68 128.216 124.84 128.216C94.0006 128.216 69 132.44 69 137.65C69 142.861 94.0006 147.085 124.84 147.085Z" fill="black"/>
<path d="M132.283 108.88C123.06 120.952 124.115 137.267 124.115 137.267C124.115 137.267 140.122 134.01 149.344 121.938C158.567 109.865 157.512 93.5503 157.512 93.5503C157.512 93.5503 141.505 96.808 132.283 108.88Z" fill="#388AD3"/>
<path d="M138.326 111.591C136.537 126.682 124.422 137.649 124.422 137.649C124.422 137.649 115.209 124.148 116.998 109.057C118.788 93.9666 130.903 83 130.903 83C130.903 83 140.116 96.5005 138.326 111.591Z" fill="#A4CCEF"/>
<g clip-path="url(#clip0)">
<path d="M126.686 9.70811C147.381 9.70811 168.102 15.576 186.608 26.6822C199.588 34.4841 211.093 44.5107 220.597 56.3046L185.87 55.1593L185.572 64.2152L229.476 65.6638C231.976 65.7447 234.069 63.7854 234.153 61.285C234.153 61.1839 234.153 61.0853 234.153 60.9867L232.704 17.0827L223.648 17.3811L224.624 46.9807C215.053 35.9251 203.797 26.4521 191.27 18.9131C171.356 6.96254 149.022 0.647202 126.686 0.647202C90.9985 0.647202 58.0996 15.3611 34.0517 42.0812C12.7293 65.7725 0 97.6425 0 127.333H9.06091C9.06091 99.8192 20.9205 70.217 40.7868 48.1437C63.0927 23.3576 93.5999 9.70811 126.686 9.70811Z" fill="#388AD3"/>
<path d="M214.214 206.523C191.908 231.311 161.403 244.958 128.315 244.958C107.619 244.958 86.8987 239.09 68.3926 227.987C55.413 220.182 43.9074 210.156 34.4041 198.362L69.1308 199.509L69.4291 190.451L25.5252 189.005C24.2712 188.954 23.0552 189.435 22.1728 190.327C21.2854 191.215 20.8076 192.428 20.8481 193.682L22.2967 237.586L31.3526 237.288L30.3767 207.688C39.9483 218.741 51.2037 228.214 63.7307 235.756C83.645 247.704 105.979 254.019 128.315 254.019C164.002 254.019 196.901 239.305 220.949 212.585C242.272 188.894 255.001 157.024 255.001 127.333H245.94C245.94 154.847 234.08 184.452 214.214 206.523Z" fill="#388AD3"/>
</g>
<defs>
<clipPath id="clip0">
<rect width="255" height="255" fill="white"/>
</clipPath>
</defs>
</svg>
