<?xml version="1.0" standalone="no"?>
<!DOCTYPE svg PUBLIC "-//W3C//DTD SVG 20010904//EN"
 "http://www.w3.org/TR/2001/REC-SVG-20010904/DTD/svg10.dtd">
<svg version="1.0" xmlns="http://www.w3.org/2000/svg"
 width="626.000000pt" height="626.000000pt" viewBox="0 0 626.000000 626.000000"
 preserveAspectRatio="xMidYMid meet">
<metadata>
Created by potrace 1.16, written by Peter Selinger 2001-2019
</metadata>
<g transform="translate(0.000000,626.000000) scale(0.100000,-0.100000)"
fill="#000000" stroke="none">
<path d="M2689 5200 c-317 -35 -612 -217 -771 -473 l-33 -54 -88 -11 c-234
-29 -322 -180 -322 -552 1 -223 33 -328 139 -451 74 -87 175 -137 293 -144
l62 -4 67 -70 c104 -111 261 -217 384 -260 31 -11 33 -13 17 -22 -38 -22 -165
-60 -232 -70 -112 -16 -200 -47 -238 -84 l-34 -33 -107 31 c-83 24 -112 29
-133 21 -37 -13 -53 -56 -33 -92 12 -21 34 -32 117 -56 l101 -31 -2 -71 c-1
-59 3 -76 19 -94 77 -85 319 -140 435 -98 25 9 70 28 100 42 57 27 77 27 168
4 l42 -11 0 -81 c0 -134 37 -262 106 -368 18 -26 17 -27 -20 -69 -73 -80 -101
-195 -62 -254 16 -24 16 -26 -6 -34 -13 -5 -346 -142 -740 -305 -395 -162
-741 -302 -770 -310 -29 -9 -111 -22 -183 -31 -145 -17 -178 -32 -183 -82 -3
-34 28 -71 84 -98 47 -22 158 -45 221 -45 120 0 182 22 1143 419 l944 389 12
-41 c6 -23 14 -49 18 -58 6 -13 -125 -70 -726 -317 -403 -166 -753 -308 -777
-317 -24 -8 -96 -22 -160 -30 -178 -23 -192 -26 -212 -46 -50 -50 3 -123 116
-159 83 -26 249 -29 330 -7 28 8 599 240 1270 517 671 276 1379 568 1573 648
l353 145 154 -47 c84 -25 159 -46 165 -46 20 0 60 49 60 73 0 34 -26 54 -106
81 -55 19 -65 25 -49 31 205 78 318 175 318 275 0 79 -86 143 -192 143 -73 0
-105 -17 -205 -112 -94 -90 -129 -114 -247 -164 l-85 -36 -90 28 c-81 26 -87
29 -64 39 14 5 55 22 93 37 137 55 242 146 258 223 18 89 -72 171 -189 172
-59 0 -102 -18 -149 -62 l-31 -30 5 63 c4 35 14 77 25 94 24 41 24 139 -2 240
-22 86 -43 125 -69 132 -12 3 -28 37 -50 105 -39 119 -125 295 -178 365 -81
106 -118 124 -291 139 l-82 7 7 36 c5 20 8 77 8 127 -1 85 -3 95 -41 175 -22
46 -59 106 -82 132 -23 27 -42 57 -42 69 0 36 -60 201 -101 278 -203 376 -613
595 -1030 550z m308 -75 c333 -70 609 -308 722 -622 16 -43 31 -90 35 -105 l6
-28 -59 0 c-33 0 -71 -4 -85 -10 -23 -9 -26 -6 -42 43 -71 218 -256 436 -479
564 -146 84 -319 133 -472 133 -46 0 -83 4 -83 9 0 4 33 13 73 20 39 6 83 13
97 15 44 8 216 -3 287 -19z m-164 -93 c178 -48 346 -151 485 -296 98 -104 175
-224 212 -335 25 -71 25 -73 6 -87 -29 -21 -33 -18 -44 29 -31 122 -157 318
-268 416 -299 264 -743 326 -1048 145 -69 -41 -57 -21 24 40 138 105 180 117
400 112 117 -3 174 -9 233 -24z m-46 -197 c43 -15 91 -34 106 -44 l28 -18
-113 -7 c-148 -9 -291 -39 -403 -84 -84 -34 -97 -37 -190 -36 -55 0 -117 4
-139 8 l-39 7 39 40 c58 59 150 115 231 139 145 43 341 41 480 -5z m-632 -234
c72 -8 143 -8 255 0 233 16 479 -4 618 -52 139 -48 264 -144 302 -231 23 -52
23 -55 12 -234 -6 -100 -16 -192 -21 -205 -17 -44 -69 -85 -178 -141 -189 -97
-433 -178 -539 -178 -105 0 -151 28 -316 186 -141 136 -179 163 -212 151 -8
-3 -46 -50 -84 -105 -39 -54 -83 -107 -99 -117 -15 -10 -51 -21 -79 -23 -42
-3 -58 0 -91 21 -57 36 -141 133 -171 196 -54 117 -37 485 28 613 29 55 94
108 160 129 31 11 281 4 415 -10z m1277 -294 c22 -31 23 -40 22 -207 -1 -184
-21 -308 -58 -365 -26 -40 -102 -91 -221 -150 -144 -71 -239 -102 -294 -97
l-44 4 64 23 c193 68 357 154 413 217 54 59 65 105 76 335 8 174 6 208 -23
276 l-16 38 29 -21 c16 -11 40 -35 52 -53z m342 -9 c20 -11 19 -12 -17 -20
-57 -12 -91 -33 -136 -84 -63 -72 -85 -139 -85 -264 -1 -93 2 -111 25 -160 14
-30 41 -70 60 -89 l34 -34 -30 7 c-45 11 -85 37 -116 76 l-27 35 14 65 c7 36
16 133 20 215 3 83 7 160 10 172 5 27 60 70 111 89 40 15 101 11 137 -8z m66
-100 c19 -13 45 -45 59 -73 23 -43 26 -62 26 -145 0 -88 -3 -101 -33 -163 -38
-76 -83 -116 -139 -124 -152 -20 -222 282 -103 445 58 81 127 102 190 60z
m280 -425 c0 -5 -24 -18 -53 -31 -65 -28 -132 -81 -119 -94 5 -5 32 6 67 26
56 34 117 58 181 71 28 5 36 1 83 -51 36 -40 72 -97 116 -188 62 -127 119
-281 110 -296 -3 -4 -52 -27 -111 -50 -78 -32 -109 -49 -117 -67 -10 -22 -13
-18 -48 56 -68 145 -163 270 -311 412 l-91 86 42 38 c23 21 49 51 57 67 14 28
16 28 104 28 50 0 90 -3 90 -7z m-650 -94 c0 -21 -75 -126 -134 -187 -77 -81
-160 -140 -267 -192 -123 -58 -220 -81 -379 -87 -159 -6 -217 5 -337 66 -122
62 -127 73 -18 36 359 -119 746 -30 970 224 126 143 165 177 165 140z m88 -64
c23 -10 42 -21 42 -25 0 -3 -27 -38 -60 -77 -148 -177 -402 -309 -650 -338
-73 -8 -60 1 34 25 216 55 422 199 538 375 23 36 45 64 48 62 3 -2 24 -12 48
-22z m300 -55 c125 -109 263 -286 327 -420 35 -74 35 -74 -83 -113 -76 -25
-247 -56 -256 -46 -3 3 8 31 24 62 28 55 30 92 6 84 -6 -2 -28 -34 -48 -70
-44 -81 -94 -150 -141 -195 l-34 -33 -6 52 c-17 139 -142 267 -289 294 -21 4
-38 9 -38 11 0 2 19 21 42 42 59 52 125 124 197 213 69 87 98 109 153 116 43
6 55 17 38 37 -8 11 -8 15 2 19 27 11 39 5 106 -53z m-538 -314 c0 -9 -132
-88 -200 -120 -77 -35 -123 -50 -204 -65 -41 -7 -48 -6 -78 19 l-33 28 50 6
c188 24 295 52 395 105 54 29 70 35 70 27z m1248 -79 c16 -18 52 -173 52 -220
0 -51 -22 -99 -54 -120 -23 -16 -29 -16 -55 -3 -42 22 -87 78 -109 138 -30 82
-33 86 -27 41 8 -62 33 -133 62 -170 23 -31 23 -33 4 -33 -31 0 -80 68 -101
140 -24 84 -30 123 -22 136 6 9 215 101 233 103 4 1 11 -5 17 -12z m-1885 -46
c48 -6 64 -13 94 -43 l36 -36 -34 -7 c-51 -11 -104 -41 -132 -74 -25 -31 -26
-31 -67 -16 -82 29 -130 11 -130 -50 0 -38 20 -58 75 -75 43 -13 62 -26 53
-35 -9 -9 -212 52 -216 65 -2 5 -25 10 -52 10 -34 0 -65 9 -106 31 -55 28 -59
29 -71 13 -7 -10 -13 -27 -13 -38 0 -26 -38 -66 -56 -59 -42 16 -59 132 -26
172 13 16 48 27 152 47 126 24 251 64 310 99 18 11 39 14 75 9 28 -3 76 -9
108 -13z m756 -21 c116 -62 180 -168 163 -270 -7 -42 -11 -47 -67 -77 -99 -54
-178 -75 -297 -79 -93 -3 -113 -7 -159 -31 -86 -45 -223 -42 -352 8 -88 33
-101 48 -99 114 2 81 27 148 68 184 38 34 67 43 216 70 104 19 237 65 293 102
48 32 153 22 234 -21z m810 -87 c54 -45 42 -135 -22 -167 -62 -30 -173 -55
-298 -67 -131 -13 -166 -5 -183 42 -8 22 -4 33 24 67 29 37 38 41 89 47 96 10
236 42 297 68 74 31 68 30 93 10z m-2275 -164 c8 -40 66 -99 98 -99 31 0 64
24 83 60 15 29 15 29 56 15 23 -8 53 -15 68 -15 36 0 81 -44 81 -78 0 -45 -34
-89 -79 -103 -51 -15 -183 7 -271 47 -83 37 -91 54 -69 154 12 57 24 64 33 19z
m2362 -14 c32 -69 114 -100 199 -76 21 6 40 9 41 8 2 -1 -2 -21 -8 -45 -18
-73 -119 -149 -279 -212 -48 -19 -51 -19 -44 -3 43 107 58 166 62 261 3 56 7
102 9 102 2 0 11 -16 20 -35z m-66 -58 c0 -75 -69 -283 -100 -302 -9 -6 -636
177 -669 195 -9 5 8 19 53 43 53 30 78 37 120 37 63 0 140 -22 219 -61 32 -17
62 -27 67 -24 18 11 10 32 -16 43 -34 16 -22 32 24 32 49 0 208 34 252 54 48
21 50 20 50 -17z m601 -77 c71 -37 70 -88 -3 -156 -55 -52 -88 -70 -226 -126
l-134 -55 -90 28 c-50 16 -93 31 -95 33 -2 2 43 26 101 54 88 42 119 64 193
135 48 46 97 89 108 95 32 18 102 14 146 -8z m-885 -225 c302 -91 605 -184
674 -205 163 -51 387 -119 528 -161 101 -30 129 -47 104 -63 -5 -3 -114 26
-243 65 -129 39 -270 81 -314 94 -44 13 -215 65 -380 114 -165 50 -461 139
-658 198 -335 101 -357 109 -330 120 15 7 37 11 49 8 11 -2 267 -79 570 -170z
m-1091 98 c50 -3 99 -12 110 -19 11 -7 38 -16 60 -20 33 -5 46 -15 78 -58 35
-48 37 -54 37 -129 0 -126 42 -276 101 -358 20 -29 21 -31 3 -50 -25 -28 -167
-96 -239 -115 -84 -22 -204 -29 -247 -15 -19 6 -48 25 -64 42 -23 24 -29 39
-28 74 1 51 40 124 82 154 26 18 36 19 93 10 102 -15 239 6 239 37 0 11 -6 13
-22 8 -35 -11 -148 -8 -206 5 -57 14 -96 50 -133 122 -29 57 -59 182 -59 245
0 48 3 55 28 69 15 8 38 13 52 10 14 -3 66 -8 115 -12z m780 -98 c193 -58 357
-108 365 -111 20 -7 -35 -37 -119 -64 -92 -29 -103 -27 -163 33 -124 124 -334
177 -487 123 l-43 -16 7 38 c4 20 16 54 28 75 16 29 26 37 42 33 11 -3 178
-53 370 -111z m1715 46 c50 -27 73 -61 61 -92 -26 -71 -96 -122 -255 -188
l-116 -49 -97 29 c-53 16 -98 30 -99 32 -2 2 39 25 92 52 73 37 112 64 167
120 116 116 170 138 247 96z m-1869 -117 c78 -23 125 -50 181 -102 64 -59 88
-102 133 -236 44 -133 54 -219 32 -263 -31 -59 -114 -112 -252 -160 -84 -30
-242 -42 -298 -24 -109 36 -117 171 -15 268 31 30 37 32 68 23 77 -22 280 -5
280 24 0 7 -36 11 -113 11 -147 0 -191 19 -236 97 -41 70 -69 160 -77 252 -6
71 -6 74 17 87 76 40 189 50 280 23z m682 -91 c48 -15 87 -30 87 -33 0 -3 -93
-44 -207 -91 l-208 -86 -18 41 c-35 78 -32 85 52 107 41 10 101 34 135 53 34
19 63 35 66 35 3 1 44 -11 93 -26z m289 -85 c43 -13 78 -26 78 -29 0 -4 -80
-39 -177 -79 -98 -40 -243 -99 -322 -132 -79 -32 -145 -57 -148 -54 -2 2 -10
27 -18 55 l-13 52 31 15 c86 39 464 193 476 193 8 1 50 -9 93 -21z m275 -85
c51 -15 93 -31 93 -34 0 -3 -62 -31 -137 -62 -76 -31 -221 -90 -323 -132 -190
-79 -460 -188 -540 -219 l-45 -18 41 36 c43 36 78 104 68 130 -3 8 1 18 8 22
18 11 721 302 733 304 6 0 52 -12 102 -27z m-1998 -389 c33 -17 160 -22 203
-8 94 28 -91 -52 -702 -304 -234 -96 -559 -231 -724 -298 -322 -133 -383 -151
-502 -141 -102 9 -225 59 -202 82 3 3 70 14 149 25 79 10 167 26 194 34 28 9
381 153 785 320 404 167 742 305 751 305 9 1 30 -6 48 -15z m519 -176 c16 -16
175 -22 232 -9 24 5 46 9 47 7 2 -1 -59 -28 -135 -58 -75 -31 -355 -147 -622
-257 -1058 -440 -1030 -429 -1113 -440 -96 -13 -199 -1 -274 34 -50 23 -63 37
-45 49 5 3 69 12 142 21 73 9 161 25 194 36 34 11 392 156 796 323 404 168
742 305 751 305 8 1 20 -4 27 -11z"/>
<path d="M1720 4528 c-58 -20 -116 -87 -138 -160 -42 -135 -37 -370 9 -479 29
-67 113 -143 183 -165 51 -16 55 -16 92 2 25 12 57 43 87 84 112 153 129 166
190 149 25 -7 63 -40 140 -123 121 -129 175 -168 267 -192 188 -48 545 78 616
218 56 111 76 332 38 418 -48 106 -186 174 -459 227 -71 13 -152 17 -380 18
-159 1 -362 4 -450 8 -113 5 -170 3 -195 -5z m343 -62 c73 -7 158 -9 200 -4
261 26 576 -14 752 -97 80 -37 111 -64 131 -111 18 -43 18 -170 0 -255 -28
-129 -60 -166 -206 -232 -103 -47 -190 -67 -296 -67 -136 1 -183 28 -328 191
-165 187 -241 186 -386 -6 -84 -112 -101 -120 -167 -86 -50 25 -98 76 -118
125 -24 57 -35 189 -25 304 13 141 44 206 115 238 37 16 158 17 328 0z"/>
</g>
</svg>
