<?xml version="1.0" encoding="UTF-8"?>
<svg xmlns="http://www.w3.org/2000/svg" xmlns:xlink="http://www.w3.org/1999/xlink" width="1900px" height="930px" viewBox="0 0 1899 930" version="1.1">
<g id="surface1">
<path style=" stroke:none;fill-rule:evenodd;fill:rgb(94.509804%,93.333333%,98.823529%);fill-opacity:1;" d="M 1902.496094 217.746094 L -0.464844 441.855469 L -0.464844 930.089844 C -0.464844 930.089844 607.726562 891.097656 927.273438 891.097656 C 1246.820312 891.097656 1902.496094 930.089844 1902.496094 930.089844 L 1898.539062 635.371094 Z M 1902.496094 217.746094 "/>
<path style=" stroke:none;fill-rule:evenodd;fill:rgb(94.509804%,93.333333%,98.823529%);fill-opacity:1;" d="M -174.074219 565.78125 C -174.074219 565.78125 39.398438 224.796875 147.777344 230.707031 C 256.15625 236.621094 399.140625 306.652344 487.75 256.890625 C 576.355469 207.128906 712.730469 213.679688 791.253906 244.507812 C 869.773438 275.339844 991.011719 239.410156 1065.296875 177.457031 C 1139.585938 115.507812 1221.46875 113.75 1333.21875 149.75 C 1444.953125 185.753906 1508.359375 142.921875 1559.617188 71.96875 C 1610.878906 1.007812 1657.722656 -4.039062 1738.457031 16.960938 C 1819.1875 37.960938 1845.660156 108.632812 1957.882812 118.453125 C 2070.105469 128.273438 1993.039062 65.445312 1993.039062 65.445312 L 1978.179688 376.644531 Z M -174.074219 565.78125 "/>
</g>
</svg>
